<svg width="127" height="160" viewBox="0 0 127 160" fill="none" xmlns="http://www.w3.org/2000/svg">
<path d="M33.1893 86.2339C33.1893 88.1912 33.4716 89.6933 34.036 90.7402C34.6569 91.7872 35.8704 92.5837 37.6767 93.1299C39.5393 93.6306 42.3333 94.0631 46.0587 94.4272V98.5921H0V94.4272C4.00756 94.0175 6.97089 93.5396 8.89 92.9934C10.8091 92.4472 12.0509 91.6506 12.6153 90.6037C13.2362 89.5112 13.5467 87.9409 13.5467 85.8926V12.6995C13.5467 10.6512 13.2362 9.10361 12.6153 8.05669C12.0509 6.96426 10.8091 6.14494 8.89 5.59872C6.97089 5.00699 4.00756 4.52905 0 4.1649V0H46.0587V4.23318C42.3333 4.59732 39.5393 5.0525 37.6767 5.59872C35.8704 6.09942 34.6569 6.87323 34.036 7.92014C33.4716 8.96706 33.1893 10.4692 33.1893 12.4264V86.2339ZM113.453 85.8926C113.453 87.9409 113.764 89.5112 114.385 90.6037C115.006 91.6961 116.276 92.5154 118.195 93.0617C120.17 93.6079 123.105 94.0631 127 94.4272V98.5921H80.9413V94.4272C84.7796 94.0631 87.6018 93.6306 89.408 93.1299C91.2142 92.5837 92.3996 91.7872 92.964 90.7402C93.5284 89.6933 93.8107 88.1912 93.8107 86.2339V12.3582C93.8107 10.4009 93.5284 8.89878 92.964 7.85186C92.3996 6.80495 91.2142 6.03114 89.408 5.53044C87.6018 4.98423 84.7796 4.52905 80.9413 4.1649V0H127V4.1649C123.105 4.52905 120.17 4.98423 118.195 5.53044C116.276 6.07666 115.006 6.89599 114.385 7.98842C113.764 9.08085 113.453 10.6512 113.453 12.6995V85.8926ZM23.368 50.7299V45.5408H103.632V50.7299H23.368Z" fill="white"/>
<path d="M119.348 150.636C120.052 152.312 120.705 153.585 121.308 154.455C121.936 155.325 122.678 155.945 123.532 156.315C124.412 156.664 125.568 156.925 127 157.099V159.09H105.664V157.099C107.524 156.881 108.881 156.576 109.735 156.185C110.59 155.771 111.029 155.13 111.055 154.259C111.08 153.389 110.766 152.16 110.112 150.571L96.843 117.77H97.8608L85.0439 150.049C84.3654 151.811 84.0136 153.16 83.9884 154.096C83.9884 155.032 84.4157 155.717 85.2701 156.152C86.1246 156.566 87.5193 156.881 89.4544 157.099V159.09H73.0564V157.099C74.5894 156.925 75.7831 156.642 76.6376 156.25C77.5172 155.858 78.2711 155.184 78.8994 154.227C79.5528 153.247 80.2942 151.801 81.1235 149.886L97.2199 111.961H103.063L119.348 150.636ZM86.401 142.64L87.4565 140.094H109.698L110.791 142.64H86.401Z" fill="white"/>
<path d="M7.57703 120.414C6.94875 118.695 6.32047 117.411 5.69219 116.562C5.08905 115.692 4.33511 115.083 3.43039 114.735C2.55081 114.365 1.40734 114.104 0 113.951V111.961H21.1855V113.951C19.3258 114.169 17.9813 114.474 17.152 114.865C16.3478 115.257 15.9331 115.888 15.908 116.758C15.908 117.607 16.1719 118.825 16.6996 120.414L27.6316 152.072H27.3678L37.772 120.61C38.3501 118.912 38.6265 117.629 38.6014 116.758C38.6014 115.888 38.1867 115.268 37.3574 114.898C36.528 114.506 35.171 114.191 33.2861 113.951V111.961H53.68V113.951C51.8455 114.169 50.5261 114.463 49.7219 114.833C48.9428 115.203 48.5533 115.812 48.5533 116.66C48.5784 117.509 48.8674 118.76 49.4203 120.414L60.1261 152.072H59.8623L70.3042 120.969C70.9074 119.206 71.209 117.857 71.209 116.922C71.2341 115.986 70.832 115.311 70.0027 114.898C69.1733 114.485 67.7911 114.169 65.856 113.951V111.961H82.2164V113.951C80.7085 114.126 79.5022 114.408 78.5975 114.8C77.6928 115.17 76.9263 115.844 76.298 116.824C75.6949 117.781 75.0289 119.217 74.3001 121.132L60.2392 159.089H54.3209L40.3731 119.141H42.1825L27.7447 159.089H21.8641L7.57703 120.414Z" fill="white"/>
</svg>
