<svg width="16" height="16" viewBox="0 0 16 16" fill="none" xmlns="http://www.w3.org/2000/svg">
<path d="M7.97408 11.0113V9.25928" stroke="none" stroke-width="1.5" stroke-linecap="round" stroke-linejoin="round"/>
<path d="M14.0596 7.65186L14.0403 7.66586C12.4256 8.66052 10.2936 9.26119 7.97097 9.26119C5.64831 9.26119 3.52231 8.66052 1.90831 7.66586L1.88831 7.65186" stroke="none" stroke-width="1.5" stroke-linecap="round" stroke-linejoin="round"/>
<path fill-rule="evenodd" clip-rule="evenodd" d="M1.8335 8.90055C1.8335 4.79922 3.36883 3.43188 7.97416 3.43188C12.5802 3.43188 14.1148 4.79922 14.1148 8.90055C14.1148 13.0019 12.5802 14.3692 7.97416 14.3692C3.36883 14.3692 1.8335 13.0019 1.8335 8.90055Z" stroke="none" stroke-width="1.5" stroke-linecap="round" stroke-linejoin="round"/>
<path d="M10.1492 3.57954V3.15954C10.1492 2.31688 9.53386 1.63354 8.77586 1.63354H7.17253C6.41453 1.63354 5.79919 2.31688 5.79919 3.15954V3.57954" stroke="none" stroke-width="1.5" stroke-linecap="round" stroke-linejoin="round"/>
</svg>
