<svg
          width="160"
          height="125"
          viewBox="0 0 160 125"
          fill="none"
          xmlns="http://www.w3.org/2000/svg"
        >
          <path
            d="M23.4202 62.4358C23.7499 63.124 24.2831 63.6947 24.9477 64.0704C25.6122 64.446 26.3759 64.6086 27.1354 64.536C27.8949 64.4634 28.6133 64.1592 29.1935 63.6646C29.7736 63.1699 30.1874 62.5088 30.3787 61.7707C30.6629 61.5121 30.867 61.3265 31.1513 61.0678C33.129 60.8368 35.1314 61.2015 36.9019 62.1151C38.6725 63.0287 40.1304 64.4497 41.0888 66.1958C42.0473 67.942 42.4626 69.9338 42.2816 71.9159C42.1005 73.898 41.3313 75.7802 40.0725 77.321C33.0632 86.0767 26.3472 96.1476 14.9864 99.0083C58.8686 96.7915 99.4055 67.858 116.241 27.4077C116.336 18.6671 120.004 9.66014 126.909 4.13048C127.57 8.0772 132.522 10.7884 134.692 6.39323C135.452 4.58461 136.196 2.77117 136.957 0.962632C157.28 6.42092 144.159 32.9095 118.425 28.7023C115.15 36.3379 111.085 43.6094 106.296 50.398C112.845 45.9167 120.367 43.055 128.243 42.0482C135.692 41.3131 143.365 43.3017 150.871 44.6523C160.01 46.2871 162.65 58.3079 154.871 63.35C150.822 59.4936 143.739 62.5028 145.687 68.3505C129.782 75.0593 110.543 72.6111 96.5788 62.5303C85.155 75.1286 71.1727 85.1448 55.564 91.9113C74.3238 84.9682 88.629 101.455 102.608 110.849C103.59 111.397 104.393 112.218 104.917 113.214C105.441 114.209 105.664 115.335 105.559 116.455C105.454 117.574 105.025 118.638 104.325 119.517C103.625 120.396 102.684 121.052 101.616 121.405C99.9098 119.989 98.067 118.746 96.115 117.694C95.1924 117.206 94.1416 117.014 93.1066 117.146C92.0716 117.277 91.1031 117.726 90.3338 118.429C89.5646 119.133 89.0322 120.058 88.8097 121.077C88.5872 122.095 88.6855 123.158 89.0911 124.12C69.1947 126.264 49.0464 115.056 39.6909 97.4761C31.4605 99.7111 23.0188 101.085 14.502 101.575L0.524813 75.5315C0.76395 75.2833 1.01756 75.0394 1.26173 74.8005C2.40399 77.2923 3.84699 79.6352 5.55851 81.7771C9.6845 71.3584 10.8887 64.3645 23.4194 62.4352L23.4202 62.4358Z"
            fill="#F2F2F2"
          />
        </svg>