<svg width="127" height="160" viewBox="0 0 127 160" fill="none" xmlns="http://www.w3.org/2000/svg">
<path d="M33.1893 87.1446C33.1893 89.1019 33.4716 90.604 34.036 91.6509C34.6569 92.6978 35.8704 93.4944 37.6767 94.0406C39.5393 94.5413 42.3333 94.9737 46.0587 95.3378V99.5027H0V95.3378C4.00756 94.9282 6.97089 94.4502 8.89 93.904C10.8091 93.3578 12.0509 92.5612 12.6153 91.5143C13.2362 90.4219 13.5467 88.8515 13.5467 86.8032V13.6102C13.5467 11.5619 13.2362 10.0143 12.6153 8.96734C12.0509 7.87491 10.8091 7.05558 8.89 6.50937C6.97089 5.91763 4.00756 5.43969 0 5.07555V0.910645H46.0587V5.14382C42.3333 5.50797 39.5393 5.96315 37.6767 6.50937C35.8704 7.01006 34.6569 7.78387 34.036 8.83079C33.4716 9.8777 33.1893 11.3798 33.1893 13.3371V87.1446ZM113.453 86.8032C113.453 88.8515 113.764 90.4219 114.385 91.5143C115.006 92.6068 116.276 93.4261 118.195 93.9723C120.17 94.5185 123.105 94.9737 127 95.3378V99.5027H80.9413V95.3378C84.7796 94.9737 87.6018 94.5413 89.408 94.0406C91.2142 93.4944 92.3996 92.6978 92.964 91.6509C93.5284 90.604 93.8107 89.1019 93.8107 87.1446V13.2688C93.8107 11.3115 93.5284 9.80942 92.964 8.76251C92.3996 7.71559 91.2142 6.94179 89.408 6.44109C87.6018 5.89487 84.7796 5.43969 80.9413 5.07555V0.910645H127V5.07555C123.105 5.43969 120.17 5.89487 118.195 6.44109C116.276 6.9873 115.006 7.80663 114.385 8.89906C113.764 9.9915 113.453 11.5619 113.453 13.6102V86.8032ZM23.368 51.6405V46.4515H103.632V51.6405H23.368Z" fill="#145B10"/>
<path d="M119.348 151.547C120.052 153.222 120.705 154.495 121.308 155.366C121.936 156.236 122.678 156.856 123.532 157.226C124.412 157.574 125.568 157.835 127 158.009V160H105.664V158.009C107.524 157.792 108.881 157.487 109.735 157.095C110.59 156.682 111.029 156.04 111.055 155.17C111.08 154.3 110.766 153.07 110.112 151.482L96.843 118.681H97.8608L85.0439 150.96C84.3654 152.722 84.0136 154.071 83.9884 155.007C83.9884 155.942 84.4157 156.628 85.2701 157.063C86.1246 157.476 87.5193 157.792 89.4544 158.009V160H73.0564V158.009C74.5894 157.835 75.7831 157.552 76.6376 157.161C77.5172 156.769 78.2711 156.095 78.8994 155.137C79.5528 154.158 80.2942 152.711 81.1235 150.796L97.2199 112.871H103.063L119.348 151.547ZM86.401 143.551L87.4565 141.005H109.698L110.791 143.551H86.401Z" fill="#145B10"/>
<path d="M7.57703 121.324C6.94875 119.605 6.32047 118.322 5.69219 117.473C5.08905 116.603 4.33511 115.994 3.43039 115.645C2.55081 115.276 1.40734 115.014 0 114.862V112.871H21.1855V114.862C19.3258 115.08 17.9813 115.384 17.152 115.776C16.3478 116.168 15.9331 116.799 15.908 117.669C15.908 118.518 16.1719 119.736 16.6996 121.324L27.6316 152.983H27.3678L37.772 121.52C38.3501 119.823 38.6265 118.539 38.6014 117.669C38.6014 116.799 38.1867 116.179 37.3574 115.809C36.528 115.417 35.171 115.101 33.2861 114.862V112.871H53.68V114.862C51.8455 115.08 50.5261 115.373 49.7219 115.743C48.9428 116.113 48.5533 116.722 48.5533 117.571C48.5784 118.42 48.8674 119.671 49.4203 121.324L60.1261 152.983H59.8623L70.3042 121.879C70.9074 120.117 71.209 118.768 71.209 117.832C71.2341 116.897 70.832 116.222 70.0027 115.809C69.1733 115.395 67.7911 115.08 65.856 114.862V112.871H82.2164V114.862C80.7085 115.036 79.5022 115.319 78.5975 115.711C77.6928 116.081 76.9263 116.755 76.298 117.734C75.6949 118.692 75.0289 120.128 74.3001 122.042L60.2392 160H54.3209L40.3731 120.052H42.1825L27.7447 160H21.8641L7.57703 121.324Z" fill="#145B10"/>
</svg>
