<svg width="12" height="10" viewBox="0 0 12 10" fill="none" xmlns="http://www.w3.org/2000/svg">
<path d="M8.53906 0.125C7.49043 0.125 6.5723 0.575937 6 1.33816C5.4277 0.575937 4.50957 0.125 3.46094 0.125C2.62621 0.125941 1.82594 0.457952 1.2357 1.0482C0.645452 1.63844 0.313441 2.43871 0.3125 3.27344C0.3125 6.82812 5.58309 9.70539 5.80754 9.82422C5.8667 9.85604 5.93282 9.8727 6 9.8727C6.06718 9.8727 6.1333 9.85604 6.19246 9.82422C6.41691 9.70539 11.6875 6.82812 11.6875 3.27344C11.6866 2.43871 11.3545 1.63844 10.7643 1.0482C10.1741 0.457952 9.37379 0.125941 8.53906 0.125ZM6 9.00156C5.07273 8.46125 1.125 5.99988 1.125 3.27344C1.12581 2.65416 1.37217 2.06047 1.81007 1.62257C2.24797 1.18467 2.84166 0.938306 3.46094 0.9375C4.44863 0.9375 5.27789 1.46359 5.62422 2.30859C5.65483 2.3831 5.70689 2.44683 5.7738 2.49168C5.84071 2.53654 5.91945 2.56048 6 2.56048C6.08055 2.56048 6.15929 2.53654 6.2262 2.49168C6.29311 2.44683 6.34517 2.3831 6.37578 2.30859C6.72211 1.46207 7.55137 0.9375 8.53906 0.9375C9.15834 0.938306 9.75203 1.18467 10.1899 1.62257C10.6278 2.06047 10.8742 2.65416 10.875 3.27344C10.875 5.99582 6.92625 8.46074 6 9.00156Z" fill="none"/>
</svg>
