<svg width="24" height="25" viewBox="0 0 24 25" fill="none" xmlns="http://www.w3.org/2000/svg">
<g clip-path="url(#clip0_306_12985)">
<path d="M5.07104 5.5C5.25804 6.285 5.83104 7.213 6.50004 8.081C7.16904 7.213 7.74204 6.285 7.92904 5.5H5.07104Z" fill="#145B10"/>
<path d="M12.5 0.5H0.5C0.224 0.5 0 0.724 0 1V13C0 13.276 0.224 13.5 0.5 13.5H9.5C9.776 13.5 10 13.276 10 13V12C10 11.173 10.673 10.5 11.5 10.5H12.5C12.776 10.5 13 10.276 13 10V1C13 0.724 12.776 0.5 12.5 0.5ZM9.5 5.5H8.953C8.76 6.603 7.984 7.83 7.153 8.881C7.796 9.628 8.437 10.265 8.837 10.63C9.041 10.816 9.056 11.132 8.869 11.337C8.771 11.445 8.636 11.5 8.5 11.5C8.38 11.5 8.259 11.457 8.163 11.37C7.992 11.213 7.284 10.553 6.5 9.662C5.716 10.553 5.008 11.213 4.837 11.37C4.741 11.457 4.62 11.5 4.5 11.5C4.364 11.5 4.229 11.445 4.131 11.337C3.944 11.133 3.959 10.816 4.163 10.63C4.563 10.265 5.204 9.627 5.847 8.881C5.016 7.83 4.24 6.603 4.047 5.5H3.5C3.224 5.5 3 5.276 3 5C3 4.724 3.224 4.5 3.5 4.5H6V3C6 2.724 6.224 2.5 6.5 2.5C6.776 2.5 7 2.724 7 3V4.5H9.5C9.776 4.5 10 4.724 10 5C10 5.276 9.776 5.5 9.5 5.5Z" fill="#145B10"/>
<path d="M15.9709 19.5001H19.0289L17.4999 15.4241L15.9709 19.5001Z" fill="#145B10"/>
<path d="M23.5 11.5H11.5C11.224 11.5 11 11.724 11 12V24C11 24.276 11.224 24.5 11.5 24.5H23.5C23.776 24.5 24 24.276 24 24V12C24 11.724 23.776 11.5 23.5 11.5ZM20.676 22.468C20.618 22.49 20.559 22.5 20.5 22.5C20.298 22.5 20.107 22.376 20.032 22.176L19.404 20.5H15.597L14.969 22.176C14.872 22.435 14.581 22.564 14.325 22.468C14.066 22.371 13.935 22.083 14.033 21.824L17.033 13.824C17.179 13.434 17.822 13.434 17.969 13.824L20.969 21.824C21.065 22.083 20.935 22.371 20.676 22.468Z" fill="#145B10"/>
<path d="M21.5 10.5C21.224 10.5 21 10.276 21 10C21 6.416 18.084 3.5 14.5 3.5C14.224 3.5 14 3.276 14 3C14 2.724 14.224 2.5 14.5 2.5C18.636 2.5 22 5.864 22 10C22 10.276 21.776 10.5 21.5 10.5Z" fill="#145B10"/>
<path d="M21.5 10.5001C21.368 10.5001 21.24 10.4481 21.146 10.3541L19.146 8.35412C18.951 8.15912 18.951 7.84212 19.146 7.64712C19.341 7.45212 19.658 7.45212 19.853 7.64712L21.446 9.23912L22.6 7.70012C22.767 7.47812 23.08 7.43612 23.3 7.60012C23.521 7.76612 23.566 8.07912 23.401 8.30012L21.901 10.3001C21.814 10.4161 21.68 10.4881 21.536 10.4991C21.523 10.5001 21.512 10.5001 21.5 10.5001Z" fill="#145B10"/>
<path d="M9.5 22.5C5.364 22.5 2 19.136 2 15C2 14.724 2.224 14.5 2.5 14.5C2.776 14.5 3 14.724 3 15C3 18.584 5.916 21.5 9.5 21.5C9.776 21.5 10 21.724 10 22C10 22.276 9.776 22.5 9.5 22.5Z" fill="#145B10"/>
<path d="M0.99991 17.5001C0.89591 17.5001 0.78991 17.4671 0.69991 17.4001C0.47891 17.2341 0.43391 16.9211 0.59891 16.7001L2.09891 14.7001C2.18591 14.5841 2.31991 14.5121 2.46391 14.5011C2.60991 14.4931 2.75091 14.5431 2.85291 14.6461L4.85291 16.6461C5.04791 16.8411 5.04791 17.1581 4.85291 17.3531C4.65791 17.5481 4.34091 17.5481 4.14591 17.3531L2.55291 15.7611L1.39991 17.3001C1.30191 17.4311 1.15091 17.5001 0.99991 17.5001Z" fill="#145B10"/>
</g>
<defs>
<clipPath id="clip0_306_12985">
<rect width="24" height="24" fill="white" transform="translate(0 0.5)"/>
</clipPath>
</defs>
</svg>
