<svg width="118" height="155" viewBox="0 0 118 155" fill="none" xmlns="http://www.w3.org/2000/svg">
<path d="M107.129 118.04C106.456 118.4 105.688 118.543 104.93 118.452C104.172 118.362 103.46 118.04 102.892 117.532C102.323 117.023 101.924 116.353 101.75 115.611C101.575 114.868 101.633 114.091 101.916 113.383C101.841 113.006 101.786 112.736 101.71 112.359C100.254 111.001 98.4244 110.109 96.4567 109.796C94.489 109.484 92.4727 109.765 90.6662 110.604C88.8596 111.443 87.3452 112.802 86.317 114.506C85.2888 116.21 84.7937 118.182 84.8952 120.169C85.3562 131.376 84.8019 143.468 92.2606 152.502C58.2183 124.723 42.6964 77.4001 53.0924 34.8374C58.1936 27.7392 60.5732 18.3095 58.2855 9.76434C55.4149 12.5524 49.8189 11.8034 50.674 6.97689C51.1328 5.06938 51.6076 3.16762 52.0662 1.26011C32.459 -6.38024 27.3399 22.733 50.5656 34.5865C48.6814 42.6784 47.6495 50.9449 47.4868 59.2511C44.8648 51.7614 40.4997 45.0003 34.7506 39.524C29.1844 34.5194 21.8242 31.5765 14.9769 28.2188C6.64497 24.1222 -2.60215 32.2437 0.678421 40.9137C6.22489 40.205 10.1496 46.8253 5.11637 50.3829C13.9566 65.2089 30.9073 74.6323 48.1296 74.782C49.8713 91.6991 55.2037 108.051 63.7715 122.749C52.7696 106.042 31.4781 110.852 14.6517 110.141C13.5353 110 12.4021 110.187 11.3902 110.679C10.3784 111.17 9.53168 111.945 8.95342 112.909C8.37516 113.873 8.09034 114.984 8.13368 116.107C8.17702 117.23 8.54665 118.316 9.1975 119.233C11.4111 119.103 13.632 119.193 15.8277 119.502C16.8605 119.655 17.8206 120.123 18.5765 120.842C19.3325 121.561 19.8472 122.496 20.0501 123.518C20.253 124.541 20.1343 125.601 19.7101 126.554C19.2859 127.507 18.577 128.305 17.6806 128.839C32.4411 142.352 55.3131 145.257 73.264 136.634C78.5714 143.31 84.5591 149.417 91.1307 154.857L117.818 142.153C117.773 141.812 117.713 141.465 117.658 141.128C115.261 142.459 112.711 143.492 110.063 144.204C112.91 133.365 116.083 127.017 107.13 118.04H107.129Z" fill="#F2F2F2"/>
</svg>
