<svg width="18" height="25" viewBox="0 0 16 25" fill="none" xmlns="http://www.w3.org/2000/svg">
<path fill-rule="evenodd" clip-rule="evenodd" d="M8.81868 23.2715C4.51156 23.2715 0.833374 22.6013 0.833374 19.9171C0.833374 17.2328 4.48822 14.7549 8.81868 14.7549C13.1258 14.7549 16.804 17.2088 16.804 19.893C16.804 22.5762 13.1491 23.2715 8.81868 23.2715Z" stroke="#212121" stroke-width="1.5" stroke-linecap="round" stroke-linejoin="round"/>
<path fill-rule="evenodd" clip-rule="evenodd" d="M8.81017 11.0357C11.6367 11.0357 13.9276 8.7448 13.9276 5.91829C13.9276 3.09177 11.6367 0.799805 8.81017 0.799805C5.98365 0.799805 3.69168 3.09177 3.69168 5.91829C3.68213 8.73526 5.95713 11.0262 8.7741 11.0357C8.78683 11.0357 8.7985 11.0357 8.81017 11.0357Z" stroke="#212121" stroke-width="1.5" stroke-linecap="round" stroke-linejoin="round"/>
</svg>
